<?xml version="1.0" standalone="no"?>
<!DOCTYPE svg PUBLIC "-//W3C//DTD SVG 20010904//EN"
 "http://www.w3.org/TR/2001/REC-SVG-20010904/DTD/svg10.dtd">
<svg version="1.0" xmlns="http://www.w3.org/2000/svg"
 width="512.000000pt" height="512.000000pt" viewBox="0 0 512.000000 512.000000"
 preserveAspectRatio="xMidYMid meet">
<metadata>
Created by potrace 1.11, written by Peter Selinger 2001-2013
</metadata>
<g transform="translate(0.000000,512.000000) scale(0.100000,-0.100000)"
fill="#000000" stroke="none">
<path d="M2317 4963 c-1 -1 -36 -4 -77 -7 -75 -6 -205 -22 -251 -31 -13 -3
-37 -8 -54 -11 -686 -122 -1342 -604 -1654 -1214 -113 -220 -195 -479 -227
-717 -3 -26 -8 -57 -10 -68 -23 -120 -23 -583 0 -715 2 -14 10 -59 16 -100 24
-156 94 -401 141 -492 5 -10 9 -23 9 -29 0 -40 202 -396 292 -514 170 -223
394 -415 643 -550 180 -97 516 -217 756 -271 62 -14 300 -55 348 -60 30 -3 63
-7 73 -9 98 -19 623 -27 773 -12 130 13 132 14 290 43 95 17 247 59 365 99
365 125 647 325 904 639 234 286 352 536 402 852 3 20 7 44 9 54 22 115 42
411 49 739 l3 123 -1126 -7 c-619 -3 -1243 -7 -1386 -8 -252 -2 -260 -3 -263
-22 -1 -11 -3 -212 -5 -447 l-2 -426 240 4 c132 2 395 6 584 9 l344 5 -6 -83
c-18 -250 -132 -418 -333 -488 -31 -11 -69 -22 -83 -24 -14 -2 -44 -7 -66 -10
-51 -9 -216 -10 -275 -1 -251 35 -446 169 -553 381 -52 104 -108 333 -122 500
-3 44 -8 95 -11 114 -13 83 -5 662 11 736 2 11 7 47 10 80 9 80 39 223 65 310
88 284 302 464 597 501 448 57 831 -137 1042 -528 l36 -68 563 0 562 0 1 25
c0 14 0 356 0 760 0 404 0 760 0 790 l-1 55 -566 0 -566 0 2 -37 c1 -21 2 -91
1 -156 l-1 -118 -57 44 c-137 103 -318 196 -491 251 -95 30 -271 70 -352 81
-30 4 -63 9 -73 11 -62 11 -511 26 -520 17z"/>
<path d="M2547 3515 c-74 -19 -127 -62 -162 -130 l-30 -59 -3 -283 -4 -283 26
-1 c14 0 53 0 86 0 33 0 75 0 93 0 l33 1 -1 73 c-2 88 3 103 35 103 25 0 25 0
27 101 l2 102 -32 3 c-31 3 -32 4 -33 56 0 29 4 62 10 75 14 27 53 31 66 6 6
-10 10 -127 10 -268 0 -232 1 -251 18 -252 36 -1 119 -1 167 0 l50 1 -1 274
c-2 305 -10 358 -64 420 -17 19 -49 42 -73 51 -53 22 -157 27 -220 10z"/>
<path d="M3215 3521 c-56 -14 -105 -43 -141 -84 -58 -69 -64 -107 -64 -409 l0
-268 28 -1 c15 0 66 -1 115 -2 l87 -2 1 30 c0 17 0 56 -1 88 -1 55 3 63 34 58
24 -4 31 22 31 111 l-1 93 -29 5 c-29 5 -30 7 -32 68 -1 53 2 64 20 77 58 40
64 12 63 -268 -1 -132 2 -244 5 -249 6 -10 50 -11 197 -9 l32 1 0 259 c0 142
-5 283 -10 312 -24 126 -101 190 -233 194 -39 1 -85 -1 -102 -4z"/>
</g>
</svg>
